<?xml version="1.0" encoding="UTF-8" standalone="no"?>
<!-- Created with Inkscape (http://www.inkscape.org/) -->

<svg
   width="293.72699"
   height="125.1824"
   viewBox="0 0 77.715263 33.121171"
   version="1.1"
   id="svg5"
   xml:space="preserve"
   xmlns:inkscape="http://www.inkscape.org/namespaces/inkscape"
   xmlns:sodipodi="http://sodipodi.sourceforge.net/DTD/sodipodi-0.dtd"
   xmlns="http://www.w3.org/2000/svg"
   xmlns:svg="http://www.w3.org/2000/svg"><sodipodi:namedview
     id="namedview7"
     pagecolor="#ffffff"
     bordercolor="#111111"
     borderopacity="1"
     inkscape:showpageshadow="0"
     inkscape:pageopacity="0"
     inkscape:pagecheckerboard="1"
     inkscape:deskcolor="#d1d1d1"
     inkscape:document-units="mm"
     showgrid="false"
     showguides="true" /><defs
     id="defs2" /><g
     inkscape:groupmode="layer"
     id="layer7"
     inkscape:label="Evertyhing"
     transform="translate(-20.694629,-141.24844)"><g
       inkscape:label="Bottom Part"
       inkscape:groupmode="layer"
       id="layer1"><path
         style="display:inline;fill:#000000;stroke-width:0.0467086"
         d="m 22.994058,174.30651 c -0.01015,-0.0315 -0.0315,-0.21441 -0.04742,-0.40636 -0.03888,-0.46853 -0.09146,-0.6249 -0.249679,-0.74245 -0.497001,-0.36923 -1.082567,-1.03535 -1.416261,-1.61109 -0.670488,-1.15683 -0.770311,-2.62939 -0.275557,-4.0649 0.317801,-0.92209 0.745732,-1.57779 1.486885,-2.27828 0.289916,-0.27402 0.428402,-0.44022 0.448829,-0.53867 l 0.02954,-0.14238 0.169994,0.29587 c 0.0935,0.16273 0.352514,0.49308 0.575596,0.7341 0.698696,0.75489 1.088003,1.40186 1.381843,2.29641 0.209097,0.63656 0.264189,1.04762 0.23499,1.75336 -0.05405,1.30635 -0.471593,2.20363 -1.472864,3.16509 l -0.559051,0.53682 -0.07099,0.51844 c -0.03904,0.28515 -0.07116,0.52361 -0.07137,0.52992 -0.0014,0.0417 -0.149606,3.2e-4 -0.164486,-0.0459 z m 66.950998,-0.0591 c -0.25957,-0.13267 -0.45296,-0.25769 -0.45296,-0.29284 0,-0.0191 0.0559,-0.0594 0.1242,-0.0894 0.1074,-0.0472 0.15224,-0.0387 0.3317,0.0627 l 0.20751,0.11733 0.19041,-0.11598 c 0.10474,-0.0638 0.20128,-0.11598 0.21455,-0.11598 0.0133,0 0.25713,-0.13345 0.54191,-0.29656 0.38403,-0.21995 0.52331,-0.32443 0.53916,-0.40449 0.0397,-0.20009 0.0407,-1.33947 0.001,-1.47352 -0.0325,-0.11059 -0.16094,-0.20083 -0.76629,-0.53818 l -0.7273,-0.40532 -0.67336,0.37406 c -0.37035,0.20572 -0.71081,0.40465 -0.75657,0.44205 -0.0735,0.0601 -0.0832,0.16331 -0.0832,0.88284 v 0.81482 l 0.21385,0.11533 c 0.23415,0.12626 0.39568,0.1615 0.48753,0.10633 0.0441,-0.0265 0.0594,-0.2581 0.0594,-0.89953 v -0.86382 l 0.14265,-0.0202 0.14265,-0.0202 v 0.92886 c 0,0.51087 -0.0133,0.96228 -0.0295,1.00313 -0.0387,0.0973 -0.26544,0.20852 -0.42507,0.20852 -0.1383,0 -0.61905,-0.23067 -0.77738,-0.373 -0.0944,-0.0849 -0.0994,-0.1352 -0.0994,-1.00265 0,-0.88227 0.004,-0.91721 0.10699,-1.02888 0.12096,-0.13069 1.58431,-0.9449 1.69764,-0.94457 0.0646,1.9e-4 0.29595,0.12137 1.41776,0.74249 0.39276,0.21746 0.3915,0.21371 0.3915,1.16858 0,0.45958 -0.0205,0.8878 -0.0457,0.9516 -0.0422,0.10725 -0.20551,0.22843 -0.58745,0.43604 -0.0833,0.0453 -0.34402,0.18748 -0.5794,0.31602 -0.51398,0.28066 -0.62152,0.30922 -0.80715,0.21435 z M 26.855267,173.1856 c -0.394826,-0.0173 -0.416073,-0.0235 -0.416073,-0.12193 0,-0.13081 0.08429,-0.21385 0.217078,-0.21385 0.05662,0 0.159336,-0.0428 0.228246,-0.0951 l 0.125291,-0.0951 v -1.74015 c 0,-1.99376 0.02214,-1.89333 -0.430122,-1.95122 -0.265921,-0.034 -0.330285,-0.10457 -0.229056,-0.25101 0.06282,-0.0909 0.108109,-0.0937 1.491324,-0.0944 0.874072,-4.1e-4 1.51649,0.0189 1.658809,0.0501 1.211112,0.26481 1.901808,1.40846 1.621568,2.68499 -0.102744,0.46801 -0.281702,0.78642 -0.621022,1.10495 -0.330232,0.31 -0.742558,0.52822 -1.211558,0.6412 -0.316679,0.0763 -1.584043,0.11876 -2.434485,0.0816 z m 2.46645,-0.47942 c 0.695856,-0.2512 1.05709,-0.95306 1.007009,-1.95656 -0.03014,-0.60393 -0.173166,-0.9167 -0.592107,-1.29484 -0.251885,-0.22734 -0.35967,-0.28979 -0.643987,-0.37312 -0.350498,-0.10272 -1.094504,-0.14653 -1.215014,-0.0715 -0.0458,0.0285 -0.05944,0.42985 -0.05944,1.74973 0,1.56306 0.0073,1.72136 0.08322,1.81132 0.202971,0.24042 0.935462,0.31005 1.420323,0.13501 z m 2.764183,0.47948 c -0.405087,-0.0157 -0.463624,-0.0283 -0.463624,-0.0993 0,-0.13524 0.108531,-0.2239 0.309083,-0.25249 0.365824,-0.0521 0.356633,-0.002 0.356633,-1.95871 0,-1.49734 -0.01,-1.74476 -0.07285,-1.80542 -0.06285,-0.0607 -0.196207,-0.0968 -0.497213,-0.13483 -0.09198,-0.0116 -0.1195,-0.15428 -0.0462,-0.2395 0.08634,-0.10038 2.550472,-0.0974 2.857257,0.004 0.875223,0.28775 1.02077,1.28401 0.260328,1.78193 l -0.178356,0.11678 0.175761,0.0709 c 0.09667,0.039 0.191534,0.0709 0.210811,0.0709 0.102904,0 0.478178,0.39141 0.550527,0.57421 0.105763,0.2672 0.07519,0.74965 -0.0642,1.01303 -0.171353,0.32378 -0.606548,0.62973 -1.103604,0.77585 -0.274941,0.0808 -1.351221,0.1199 -2.294346,0.0833 z m 2.187143,-0.4523 c 0.09628,-0.0388 0.216301,-0.10591 0.266719,-0.14911 0.239992,-0.20562 0.343648,-0.75662 0.203305,-1.08071 -0.08857,-0.20454 -0.418633,-0.46747 -0.662006,-0.52736 -0.276096,-0.068 -0.819069,-0.11247 -0.935779,-0.0767 -0.09136,0.028 -0.09646,0.0664 -0.0962,0.72614 3.32e-4,0.83546 0.03813,1.00225 0.250065,1.10307 0.200632,0.0954 0.742347,0.0981 0.9739,0.005 z m -0.130553,-2.26519 c 0.232077,-0.10996 0.309083,-0.27103 0.309083,-0.6465 0,-0.40198 -0.09524,-0.57606 -0.391361,-0.71533 -0.232449,-0.10932 -0.908704,-0.15001 -0.968928,-0.0583 -0.06836,0.10411 -0.05294,1.44965 0.01697,1.47994 0.104471,0.0452 0.910904,-0.001 1.034239,-0.0598 z m 55.985766,2.63689 c -0.17524,-0.0736 -0.3033,-0.2341 -0.3033,-0.38016 0,-0.0855 0.0259,-0.10449 0.14266,-0.10449 0.0785,0 0.14265,0.0206 0.14265,0.0459 0,0.0252 0.0428,0.0872 0.0951,0.13765 0.0754,0.0727 0.1585,0.0917 0.40079,0.0917 0.34592,0 0.49029,-0.0803 0.40874,-0.22731 -0.0499,-0.09 -0.13317,-0.11705 -0.50045,-0.1627 -0.4526,-0.0563 -0.63811,-0.16933 -0.63977,-0.38996 -0.002,-0.35362 0.20191,-0.50469 0.68341,-0.50469 0.38916,0 0.58086,0.0862 0.67489,0.30329 0.0812,0.1876 0.0561,0.24728 -0.10435,0.24728 -0.0795,0 -0.131,-0.0349 -0.15997,-0.10844 -0.0519,-0.13181 -0.13733,-0.16685 -0.40666,-0.16685 -0.27782,0 -0.35663,0.0358 -0.35663,0.16224 0,0.0935 0.0336,0.11254 0.27342,0.15535 0.74237,0.13253 0.86781,0.20193 0.86781,0.4802 0,0.17691 -0.10243,0.32681 -0.28583,0.41832 -0.1728,0.0862 -0.72972,0.0878 -0.93251,0.002 z m -26.360682,-0.76518 c -0.208757,-0.0421 -0.40717,-0.25281 -0.479537,-0.50912 -0.04866,-0.17227 -0.04341,-0.53222 0.01638,-1.13019 0.0091,-0.0914 -0.02843,-0.1217 -0.250783,-0.20211 -0.462168,-0.16713 -0.882508,-0.46685 -1.026405,-0.73186 -0.07674,-0.14133 -0.08693,-0.34862 -0.02476,-0.50399 0.104653,-0.26165 0.65794,-0.63858 1.138285,-0.77545 0.186479,-0.0532 0.203408,-0.0698 0.178843,-0.17648 -0.01492,-0.0648 -0.04102,-0.28488 -0.05796,-0.4891 -0.04047,-0.4871 0.03509,-0.79478 0.248808,-1.01342 0.15967,-0.16336 0.16343,-0.16447 0.48213,-0.1424 0.3635,0.0252 0.566902,0.11141 0.994669,0.42167 0.159836,0.11593 0.301392,0.21078 0.314573,0.21078 0.01314,0 0.127922,-0.0833 0.255001,-0.18505 0.366637,-0.29366 0.746008,-0.45728 1.060208,-0.45728 0.318015,0 0.439114,0.0695 0.584944,0.33567 0.08684,0.1585 0.105381,0.26794 0.106359,0.62783 6.11e-4,0.23973 -0.01461,0.52043 -0.03387,0.62378 l -0.03503,0.18791 0.201476,0.0574 c 0.326042,0.0929 0.719285,0.31475 0.936712,0.5285 0.160826,0.15812 0.207547,0.2412 0.226401,0.4026 0.02941,0.25152 -0.05215,0.41574 -0.323908,0.65266 -0.173781,0.15149 -0.815307,0.48354 -0.934205,0.48354 -0.02262,0 -0.04011,0.29421 -0.03876,0.6538 0.0024,0.71474 -0.04017,0.85919 -0.312317,1.05492 -0.292313,0.21021 -0.947172,0.0348 -1.443376,-0.38664 -0.113359,-0.0963 -0.219505,-0.17506 -0.235877,-0.17506 -0.01638,0 -0.140211,0.0842 -0.275195,0.18719 -0.466503,0.3558 -0.929051,0.51931 -1.272725,0.44991 z m 0.647291,-0.40637 c 0.15552,-0.075 0.371956,-0.21 0.480975,-0.30005 l 0.198217,-0.16371 -0.290228,-0.3367 -0.29024,-0.33671 -0.424197,-0.0559 c -0.233304,-0.0308 -0.433496,-0.047 -0.444861,-0.036 -0.05881,0.0567 -0.121895,0.59674 -0.09699,0.83031 0.05796,0.54354 0.318565,0.66337 0.867328,0.39878 z m 2.509429,-0.0163 c 0.0878,-0.11407 0.0998,-0.1928 0.09939,-0.65197 -4.71e-4,-0.28723 -0.02164,-0.54133 -0.04756,-0.56467 -0.02898,-0.0262 -0.214198,-0.0137 -0.482179,0.0325 l -0.435097,0.075 -0.272187,0.33656 -0.27218,0.33656 0.17773,0.1452 c 0.521227,0.42578 1.03483,0.54699 1.232076,0.29075 z m -1.428551,-0.89114 0.127305,-0.17205 -0.167257,-0.0142 c -0.09199,-0.008 -0.242756,-0.008 -0.335029,0 l -0.167778,0.0142 0.147462,0.17205 c 0.0811,0.0946 0.174582,0.17206 0.20773,0.17206 0.03314,0 0.117554,-0.0774 0.187567,-0.17206 z m 0.54298,-0.73409 c 0.07806,-0.11987 0.214033,-0.34644 0.302149,-0.50349 l 0.160215,-0.28556 -0.133125,-0.24715 c -0.07322,-0.13593 -0.208604,-0.36358 -0.30086,-0.50589 l -0.16774,-0.25874 H 65.29604 64.692707 l -0.250801,0.38423 c -0.399541,0.61208 -0.397156,0.59276 -0.128626,1.04322 0.384067,0.64425 0.290754,0.58821 0.98218,0.58987 l 0.601322,0.001 0.141941,-0.21794 z m -1.125563,-0.35853 c -0.376523,-0.30569 -0.205756,-0.9272 0.27635,-1.00579 0.612791,-0.0999 0.946445,0.65099 0.455003,1.02397 -0.192623,0.14621 -0.539506,0.13757 -0.731353,-0.0182 z m -0.670755,0.50611 c 0,-0.0539 -0.239216,-0.47567 -0.285399,-0.50321 -0.05453,-0.0326 -0.190116,0.24241 -0.190116,0.38552 0,0.0632 0.03919,0.0959 0.130765,0.1093 0.213856,0.0312 0.34475,0.0344 0.34475,0.008 z m 2.532104,-0.0514 c 0.10551,-0.028 0.104397,-0.0523 -0.01461,-0.3202 -0.07669,-0.17263 -0.107918,-0.20566 -0.144564,-0.15291 -0.06983,0.10053 -0.280672,0.49614 -0.280672,0.52664 0,0.0253 0.262918,-0.007 0.439848,-0.0535 z m -3.208753,-0.42877 c 0.06628,-0.16403 0.120519,-0.37049 0.120519,-0.45881 0,-0.20557 -0.220147,-0.75291 -0.309829,-0.77032 -0.08948,-0.0174 -0.480681,0.14514 -0.750874,0.31195 -0.550866,0.34008 -0.461564,0.69082 0.272737,1.07118 0.447312,0.2317 0.5182,0.21535 0.667447,-0.154 z m 4.071343,0.1615 c 0.366551,-0.16783 0.632654,-0.388 0.677547,-0.56059 0.06089,-0.23399 -0.338123,-0.57954 -0.900427,-0.77984 -0.268348,-0.0956 -0.252587,-0.1094 -0.439665,0.38552 l -0.12585,0.33294 0.159047,0.39065 c 0.08748,0.21486 0.186412,0.39073 0.219848,0.39082 0.03344,9e-5 0.217708,-0.0717 0.4095,-0.1595 z m -3.51267,-1.31025 c 0.135681,-0.25835 0.138958,-0.27365 0.05851,-0.27331 -0.148042,6e-4 -0.416072,0.1017 -0.416072,0.15689 0,0.11721 0.145909,0.3969 0.192544,0.36909 0.02586,-0.0154 0.100105,-0.12912 0.16499,-0.25267 z m 2.628639,0.12464 c 0.09196,-0.24539 0.07387,-0.29764 -0.121215,-0.34991 -0.211717,-0.0567 -0.297357,-0.0607 -0.296746,-0.0139 6.12e-4,0.0619 0.285808,0.51616 0.323817,0.51616 0.02036,0 0.06273,-0.0686 0.09414,-0.15236 z m -2.616925,-0.67468 0.378589,-0.0534 0.269515,-0.31831 c 0.298041,-0.35202 0.298316,-0.36627 0.01131,-0.58597 -0.496087,-0.37976 -0.951739,-0.46715 -1.142834,-0.21918 -0.08358,0.10846 -0.09971,0.19431 -0.09912,0.52763 6.11e-4,0.49296 0.05221,0.75884 0.14018,0.72626 0.03503,-0.013 0.234123,-0.0476 0.442349,-0.077 z m 2.835905,-0.0206 c 0.11405,-0.43846 0.06426,-1.05195 -0.09955,-1.22661 -0.177596,-0.18934 -0.710188,-0.027 -1.136476,0.34645 l -0.217781,0.19078 0.277438,0.33121 c 0.253998,0.30321 0.295529,0.33354 0.491429,0.35885 0.117688,0.0152 0.29957,0.0446 0.404187,0.0653 0.104611,0.0207 0.203927,0.0399 0.220709,0.0426 0.01681,0.003 0.04377,-0.0462 0.06004,-0.10862 z m -1.392174,-0.15027 c -0.0247,-0.0442 -0.09969,-0.12978 -0.166708,-0.19026 -0.13642,-0.12312 -0.187959,-0.10346 -0.367853,0.1403 l -0.09612,0.13025 h 0.337774 c 0.307071,0 0.33369,-0.007 0.292906,-0.0803 z m -19.089921,3.6743 c -0.04969,-0.0479 -0.03617,-3.60791 0.014,-3.68445 0.0715,-0.10908 0.09451,-0.0389 0.101967,0.31122 0.0039,0.18138 0.01192,0.32979 0.01789,0.32979 0.006,0 0.07261,-0.0943 0.148078,-0.20945 0.446322,-0.68131 1.431631,-0.71076 1.922112,-0.0575 0.399345,0.53192 0.379953,1.54572 -0.03931,2.05472 -0.272725,0.3311 -0.833984,0.46558 -1.334125,0.31968 -0.235694,-0.0688 -0.547369,-0.34155 -0.641852,-0.56178 l -0.06279,-0.14636 -0.0035,0.25235 c -0.002,0.13879 -0.0053,0.51559 -0.0075,0.83732 -0.0036,0.53526 -0.02549,0.6407 -0.114925,0.5544 z m 1.776488,-1.12263 c 0.218301,-0.11838 0.449422,-0.42522 0.528961,-0.70225 0.07919,-0.27582 0.0677,-0.79494 -0.02341,-1.05943 -0.159115,-0.46175 -0.539471,-0.75252 -0.987071,-0.75458 -0.47181,-0.002 -0.777573,0.18767 -0.997964,0.61963 -0.133511,0.26168 -0.152764,0.34614 -0.154204,0.67652 -0.0021,0.48165 0.107746,0.81039 0.348368,1.04256 0.337774,0.32591 0.874939,0.40011 1.28535,0.17755 z m 43.962545,1.00536 c -0.0985,-0.13574 -0.0935,-0.27969 0.0129,-0.37266 0.18853,-0.16461 0.48366,-0.0381 0.48366,0.20732 0,0.24626 -0.35262,0.36367 -0.49659,0.16534 z m 0.27545,-0.0601 c -0.0327,-0.0822 -0.11117,-0.0891 -0.11316,-0.01 -6.1e-4,0.0358 -0.0179,0.0302 -0.0452,-0.015 -0.0649,-0.10709 -0.004,-0.27183 0.0998,-0.27183 0.0493,0 0.092,0.0258 0.0951,0.0573 0.003,0.0315 0.0105,0.078 0.0165,0.10323 0.006,0.0252 0.0143,0.0729 0.0183,0.10594 0.0109,0.0902 0.10234,0.0165 0.10234,-0.0824 0,-0.11084 -0.12435,-0.22997 -0.24005,-0.22997 -0.11452,0 -0.24774,0.19101 -0.20615,0.29559 0.0322,0.0808 0.20525,0.16772 0.26582,0.13342 0.0185,-0.0105 0.0215,-0.0494 0.007,-0.0864 z m -50.434698,-0.71455 c -0.125281,-0.0187 -0.307164,-0.0734 -0.404185,-0.12173 -0.683575,-0.34022 -0.794157,-1.81294 -0.180581,-2.40497 0.259681,-0.25056 0.426063,-0.32325 0.79884,-0.34898 0.277979,-0.0192 0.354086,-0.006 0.580699,0.10102 0.438239,0.20688 0.673254,0.56443 0.725442,1.10367 l 0.02898,0.29942 h -1.202309 -1.20231 l 0.02743,0.25645 c 0.07436,0.69518 0.622965,1.11847 1.305418,1.00722 0.378329,-0.0617 0.814295,-0.43063 0.81868,-0.69285 8.56e-4,-0.052 0.03041,-0.13251 0.06565,-0.17901 0.101252,-0.13361 0.145605,-0.004 0.07809,0.22929 -0.153898,0.53037 -0.768201,0.85055 -1.439844,0.75047 z m 1.355818,-1.73861 c -0.01918,-0.30012 -0.232845,-0.68017 -0.474555,-0.84408 -0.254773,-0.17277 -0.669278,-0.21575 -0.97922,-0.10154 -0.36089,0.13298 -0.684871,0.5616 -0.732466,0.96903 l -0.0236,0.20202 1.111517,-0.009 1.111518,-0.009 z m 8.521491,1.74133 c -0.277872,-0.0365 -0.41771,-0.0981 -0.607155,-0.26728 -0.526992,-0.47061 -0.549985,-1.63796 -0.04353,-2.20888 0.312519,-0.35228 0.858695,-0.50331 1.300775,-0.35968 0.448664,0.14577 0.782134,0.60661 0.835121,1.15409 l 0.02977,0.30746 H 52.266376 51.07072 v 0.15532 c 0,0.28301 0.152163,0.63571 0.361538,0.83801 0.556172,0.53739 1.651289,0.26313 1.809621,-0.45319 0.01522,-0.0688 0.05716,-0.14878 0.09325,-0.17768 0.05294,-0.0424 0.0656,-0.0291 0.0656,0.0693 0,0.18218 -0.112571,0.40762 -0.307487,0.61579 -0.25952,0.27716 -0.658485,0.39091 -1.146197,0.32677 z m 1.339865,-1.77307 c -0.05417,-0.44475 -0.356799,-0.82928 -0.731696,-0.92974 -0.567189,-0.152 -1.054424,0.0516 -1.318608,0.55108 -0.120892,0.22855 -0.192201,0.51573 -0.14597,0.5879 0.01803,0.0281 0.453371,0.0475 1.128877,0.0503 l 1.099537,0.004 -0.03216,-0.26387 z m 1.116858,1.71596 c -0.318633,-0.0982 -0.575083,-0.46794 -0.575083,-0.82928 0,-0.20781 0.128381,-0.1432 0.163425,0.0823 0.08261,0.53156 0.604642,0.80529 1.278392,0.67034 0.476371,-0.0954 0.713417,-0.40674 0.588355,-0.7727 -0.07984,-0.23365 -0.280042,-0.34498 -0.877586,-0.48801 -0.614497,-0.1471 -0.86119,-0.26962 -0.976848,-0.48517 -0.100992,-0.18821 -0.08018,-0.48376 0.04732,-0.67147 0.1872,-0.27566 0.829881,-0.41771 1.309022,-0.28931 0.348252,0.0933 0.607753,0.4069 0.607753,0.73442 0,0.18207 -0.105088,0.15903 -0.14556,-0.0319 -0.08363,-0.39453 -0.366814,-0.59549 -0.859093,-0.60964 -0.54452,-0.0157 -0.849849,0.19023 -0.849849,0.57304 0,0.28405 0.150501,0.43772 0.530483,0.54165 0.165913,0.0454 0.451452,0.12364 0.634526,0.17393 0.617969,0.16974 0.845899,0.42026 0.764282,0.84002 -0.04322,0.22224 -0.308502,0.49988 -0.542197,0.56744 -0.227178,0.0657 -0.87667,0.0624 -1.097318,-0.005 z m 2.729728,0.003 c -0.361403,-0.12363 -0.591192,-0.4262 -0.593344,-0.78128 -0.0018,-0.26809 0.122249,-0.22376 0.160924,0.0576 0.02231,0.16236 0.0742,0.27649 0.177034,0.3895 0.338361,0.37184 1.158675,0.39374 1.535111,0.041 0.149101,-0.13972 0.170584,-0.18762 0.170584,-0.38035 0,-0.16717 -0.02672,-0.24832 -0.110553,-0.33559 -0.09988,-0.10399 -0.572007,-0.31123 -0.709033,-0.31123 -0.03038,0 -0.228113,-0.0509 -0.439451,-0.11309 -0.470361,-0.13843 -0.642577,-0.28788 -0.677645,-0.58808 -0.0313,-0.26821 0.0889,-0.51024 0.32993,-0.66415 0.253436,-0.16182 0.80882,-0.19701 1.149982,-0.0729 0.307444,0.11187 0.505172,0.34513 0.518335,0.61147 0.0132,0.26752 -0.09582,0.30367 -0.138536,0.0459 -0.03754,-0.22663 -0.21481,-0.44614 -0.430457,-0.53308 -0.184865,-0.0745 -0.668585,-0.0823 -0.856568,-0.0138 -0.200229,0.073 -0.390541,0.26957 -0.423097,0.437 -0.06488,0.33371 0.121418,0.51921 0.663927,0.66108 0.789604,0.20648 0.90972,0.25098 1.081336,0.40058 0.392192,0.34188 0.239601,0.9161 -0.301385,1.13415 -0.204661,0.0825 -0.883181,0.0918 -1.107094,0.0152 z m 15.46008,-0.009 c -0.566468,-0.20348 -0.811846,-0.91545 -0.511372,-1.48374 0.406468,-0.76876 1.536377,-0.65148 1.788597,0.18565 0.132202,0.43879 0.164103,0.42027 -0.748821,0.4347 -0.773611,0.0122 -0.795871,0.0153 -0.795871,0.10928 0,0.14289 0.179889,0.39826 0.33509,0.4757 0.208165,0.10387 0.558839,0.085 0.789941,-0.0425 0.14281,-0.0788 0.212206,-0.0952 0.249646,-0.0591 0.267662,0.25826 -0.608763,0.55907 -1.10721,0.38002 z m 0.968864,-1.20015 c 0,-0.30912 -0.261739,-0.52462 -0.637161,-0.52462 -0.173151,0 -0.248429,0.028 -0.383425,0.1423 -0.153593,0.13012 -0.277633,0.38153 -0.229733,0.46562 0.01076,0.019 0.296513,0.0344 0.63496,0.0344 h 0.615359 z m 1.141232,1.19171 c -0.260448,-0.10687 -0.356635,-0.26871 -0.356635,-0.60002 0,-0.32716 0.105265,-0.47813 0.398526,-0.57151 0.28689,-0.0914 0.543364,-0.0542 0.92102,0.13335 0.05123,0.0255 0.04402,-0.28397 -0.0098,-0.42062 -0.119436,-0.30311 -0.615826,-0.33414 -1.015299,-0.0635 -0.07274,0.0493 -0.09693,0.0441 -0.15695,-0.0335 -0.06534,-0.0845 -0.05961,-0.10157 0.07225,-0.21569 0.272089,-0.23545 0.828671,-0.28148 1.156605,-0.0957 0.282506,0.1601 0.324886,0.31524 0.310672,1.1372 l -0.01272,0.73409 -0.154542,0.0144 c -0.114802,0.0107 -0.154541,-0.004 -0.154541,-0.0573 0,-0.0878 0.02525,-0.0897 -0.273925,0.02 -0.293689,0.1077 -0.495116,0.1129 -0.724647,0.0187 z m 0.813224,-0.26108 c 0.276081,-0.17889 0.237455,-0.57091 -0.06632,-0.67308 -0.430637,-0.14484 -0.794455,0.029 -0.794455,0.37975 0,0.34534 0.511512,0.51965 0.860775,0.29333 z m 1.562526,0.23088 c -0.649345,-0.31595 -0.751914,-1.3291 -0.176942,-1.74779 0.372127,-0.27098 0.944329,-0.27528 1.241741,-0.009 0.207455,0.18552 0.03344,0.38131 -0.188919,0.21256 -0.191235,-0.14514 -0.460719,-0.16514 -0.702643,-0.0522 -0.167863,0.0784 -0.228444,0.14158 -0.308985,0.32225 -0.11377,0.25516 -0.123307,0.37964 -0.04616,0.60232 0.157109,0.45359 0.695582,0.63342 1.062592,0.35487 l 0.127684,-0.0969 0.102379,0.0988 0.102386,0.0988 -0.137203,0.11376 c -0.270719,0.22445 -0.734802,0.26881 -1.075914,0.10283 z m 1.927633,0.0502 c -0.200479,-0.1058 -0.213978,-0.16525 -0.213978,-0.94223 v -0.74826 h -0.166433 c -0.153214,0 -0.166426,-0.0109 -0.166426,-0.13765 0,-0.12672 0.01321,-0.13764 0.166426,-0.13764 h 0.166433 v -0.25235 -0.25234 h 0.166426 0.166433 v 0.25234 0.25235 h 0.190202 c 0.179638,0 0.190208,0.008 0.190208,0.13764 0,0.13 -0.01058,0.13765 -0.190208,0.13765 h -0.190202 v 0.68259 c 0,0.75701 0.02244,0.81836 0.279241,0.76394 0.117688,-0.0249 0.145958,-0.0132 0.174203,0.0727 0.02397,0.0728 0.0087,0.12013 -0.05252,0.16335 -0.103651,0.0731 -0.38798,0.0774 -0.519803,0.008 z m -35.259223,-0.0152 c 0,-0.0123 0.246067,-0.3271 0.546817,-0.69968 0.300749,-0.37258 0.546826,-0.69131 0.546838,-0.70829 1.2e-5,-0.017 -0.227622,-0.3221 -0.505853,-0.67804 -0.278231,-0.35594 -0.493135,-0.65945 -0.477563,-0.67447 0.06814,-0.0657 0.190458,0.0592 0.609036,0.62198 0.245151,0.32963 0.459402,0.59966 0.476113,0.60007 0.01671,4.1e-4 0.16199,-0.16958 0.322841,-0.37777 0.576954,-0.74673 0.675765,-0.86026 0.748714,-0.86026 0.06477,0 0.06363,0.0157 -0.0091,0.12617 -0.0457,0.0694 -0.139101,0.19703 -0.207561,0.28364 -0.06846,0.0866 -0.267827,0.33999 -0.443038,0.56308 l -0.318566,0.40563 0.131545,0.14806 c 0.151026,0.17 0.919966,1.12877 0.974281,1.21481 0.02387,0.0378 0.0062,0.0573 -0.05194,0.0573 -0.05038,0 -0.168714,-0.10215 -0.276225,-0.23844 -0.103448,-0.13113 -0.339755,-0.42928 -0.525126,-0.66256 l -0.337037,-0.42413 -0.518884,0.66073 c -0.313313,0.39898 -0.551853,0.66147 -0.602099,0.66257 -0.04577,10e-4 -0.08322,-0.008 -0.08322,-0.0204 z m 5.801249,-1.37709 c 0,-1.2133 0.0095,-1.39937 0.07132,-1.39937 0.05576,0 0.07137,0.0625 0.07151,0.28675 l 1.9e-4,0.28676 0.09088,-0.1438 c 0.172388,-0.27281 0.55385,-0.4756 0.894614,-0.4756 0.244956,0 0.168529,0.10848 -0.102814,0.14593 -0.31313,0.0432 -0.548885,0.208 -0.717268,0.50135 l -0.142002,0.2474 -0.01596,0.97498 c -0.01314,0.80245 -0.02788,0.97497 -0.08321,0.97497 -0.05649,0 -0.06724,-0.22387 -0.06724,-1.39937 z m 20.114159,0.0459 v -1.35349 h 0.667245 c 0.695553,0 0.85482,0.033 1.081239,0.22356 0.44422,0.374 0.256561,1.18657 -0.313496,1.35746 -0.14015,0.042 -0.129029,0.0692 0.255307,0.62448 0.168767,0.24383 0.306857,0.45642 0.306857,0.4724 0,0.016 -0.08618,0.0291 -0.191505,0.0291 h -0.191504 l -0.355039,-0.52763 -0.355039,-0.52763 h -0.2856 -0.285607 v 0.52763 0.52763 h -0.166426 -0.166432 z m 1.330915,-0.0915 c 0.26304,-0.13125 0.360034,-0.41231 0.234227,-0.67874 -0.09468,-0.20049 -0.277047,-0.26209 -0.775996,-0.26209 H 69.9961 v 0.47411 c 0,0.26076 0.01424,0.48787 0.03173,0.50469 0.06418,0.0619 0.826153,0.0319 0.966351,-0.038 z m 16.452559,0.99696 c -0.35344,-0.19519 -0.7008,-0.384 -0.7719,-0.41958 -0.32675,-0.16349 -0.3211,-0.14284 -0.3211,-1.17355 v -0.93644 l 0.15454,-0.11256 c 0.085,-0.0619 0.43272,-0.26147 0.77271,-0.44348 0.33999,-0.18201 0.63849,-0.3492 0.66334,-0.37153 0.0248,-0.0223 0.0931,-0.0406 0.1518,-0.0406 0.10083,0 1.51544,0.75844 1.69319,0.9078 0.0741,0.0623 0.0832,0.17152 0.0832,1.00159 0,1.04488 0.0155,0.99577 -0.37977,1.19937 -0.10555,0.0544 -0.45577,0.24428 -0.77827,0.42204 -0.32249,0.17777 -0.59507,0.3229 -0.60573,0.32252 -0.0106,-3.7e-4 -0.30857,-0.16039 -0.66202,-0.35558 z m 4.00687,-0.11015 -0.82026,-0.45814 4.8e-4,-0.99444 4.7e-4,-0.99445 0.74858,-0.42017 c 1.03931,-0.58337 0.95781,-0.55639 1.24429,-0.41186 0.13177,0.0665 0.26137,0.12088 0.28801,0.12088 0.0317,0 0.0484,-0.42122 0.0484,-1.21585 0,-1.04622 0.01,-1.21584 0.0708,-1.21584 0.0854,0 1.03206,0.49829 1.08159,0.5693 0.0192,0.0275 0.0353,1.0534 0.0356,2.27968 6.1e-4,2.06714 -0.005,2.2346 -0.0825,2.29837 -0.1685,0.13927 -1.61914,0.9088 -1.70564,0.90479 -0.0491,-0.002 -0.45853,-0.2103 -0.90967,-0.46227 z m 1.49828,-1.44523 0.0123,-0.31358 -0.29075,-0.16721 -0.29075,-0.16721 -0.28223,0.16222 -0.28223,0.16222 0.0138,0.3231 0.0138,0.32311 0.26153,0.14895 0.26153,0.14896 0.28532,-0.15349 0.2853,-0.15348 z m 2.79297,1.41843 -0.80813,-0.44734 -0.0128,-0.9943 -0.0128,-0.9943 0.39322,-0.22604 c 0.78894,-0.45354 1.29481,-0.71674 1.36742,-0.71147 0.0408,0.003 0.43752,0.21051 0.88147,0.46119 l 0.80719,0.4558 0.0138,0.34553 0.0138,0.34553 -0.52575,0.28513 c -0.29013,0.15734 -0.55736,0.27342 -0.59629,0.25901 -0.0512,-0.019 -0.0705,-0.0994 -0.0705,-0.29318 v -0.26706 l -0.26974,-0.14949 -0.26973,-0.14948 -0.2022,0.1035 c -0.38085,0.19494 -0.38575,0.20532 -0.35716,0.75718 0.004,0.0787 0.17256,0.19147 0.81352,0.54438 0.53198,0.2929 0.8081,0.47072 0.80757,0.52009 -6.1e-4,0.0844 -0.92443,0.60266 -1.07394,0.60266 -0.0499,0 -0.45441,-0.20131 -0.89888,-0.44734 z m -13.639023,0.0497 c -0.01742,-0.0168 -0.03173,-0.57033 -0.03173,-1.23002 0,-0.8905 0.01528,-1.218 0.05943,-1.27153 0.06839,-0.083 1.626389,-0.95483 1.706239,-0.95483 0.02916,0 0.435507,0.21077 0.903044,0.46837 l 0.85007,0.46835 v 1.27512 c 0,1.11993 -0.009,1.27513 -0.07354,1.27513 -0.07102,0 -0.718239,-0.33899 -0.983175,-0.51494 -0.129347,-0.0859 -0.129494,-0.0867 -0.142657,-0.7303 l -0.0132,-0.64431 -0.26894,-0.14431 -0.268941,-0.14431 -0.206568,0.10946 c -0.385333,0.20417 -0.373001,0.17512 -0.373001,0.87872 v 0.63103 l -0.515334,0.27948 c -0.51636,0.28004 -0.582773,0.30579 -0.641745,0.24889 z m 14.361033,-1.23447 c -0.14104,-0.0925 -0.17478,-0.14325 -0.1742,-0.26215 6.1e-4,-0.18215 0.0326,-0.22981 0.21251,-0.31976 0.13088,-0.0654 0.15583,-0.0641 0.32098,0.0172 0.16507,0.0813 0.17905,0.10353 0.17905,0.28522 0,0.18062 -0.0152,0.20532 -0.18171,0.29563 l -0.18171,0.0985 z m -63.749427,-1.20386 c -0.198031,-0.19108 -0.195058,-0.37629 0.0085,-0.53001 0.145535,-0.10989 0.14885,-0.11928 0.07133,-0.20193 -0.08233,-0.0878 -0.111085,-0.23945 -0.04564,-0.24074 0.01961,-3.6e-4 0.06392,-0.018 0.09846,-0.0391 0.04797,-0.0293 0.02834,-0.0717 -0.08321,-0.17929 -0.12044,-0.11621 -0.146006,-0.17765 -0.146006,-0.35087 0,-0.2307 0.07482,-0.33359 0.338108,-0.46496 0.118112,-0.059 0.21348,-0.0689 0.418602,-0.0436 0.146103,0.018 0.356583,0.0332 0.467734,0.0338 0.166302,5.9e-4 0.202093,0.0164 0.202093,0.088 0,0.0483 -0.05293,0.11024 -0.118879,0.13923 -0.06538,0.0287 -0.118878,0.0909 -0.118878,0.13814 0,0.27727 -0.251353,0.53531 -0.570614,0.58579 -0.275148,0.0435 -0.189014,0.11347 0.205225,0.16671 0.438494,0.0592 0.577119,0.15692 0.569926,0.40178 -0.0061,0.20608 -0.07457,0.32062 -0.283972,0.47473 -0.145161,0.10684 -0.229647,0.13026 -0.520959,0.14445 -0.334117,0.0163 -0.353328,0.0115 -0.491818,-0.12211 z m 0.821919,-0.10711 c 0.135743,-0.0689 0.173578,-0.12804 0.174463,-0.27252 9.17e-4,-0.14744 -0.155726,-0.2253 -0.453246,-0.2253 -0.312947,0 -0.49131,0.19555 -0.342509,0.37552 0.139699,0.16895 0.420572,0.22424 0.621292,0.1223 z m -0.128759,-1.22044 c 0.104472,-0.13279 0.08038,-0.36901 -0.05052,-0.49531 -0.137234,-0.13242 -0.201327,-0.13978 -0.319388,-0.0367 -0.108176,0.0945 -0.115148,0.36951 -0.01294,0.51031 0.08953,0.12333 0.293777,0.1349 0.382846,0.0217 z m -7.141812,0.63468 c -0.04878,-0.0471 -0.01035,-0.10131 0.100829,-0.1421 0.119133,-0.0437 0.12044,-0.0497 0.10699,-0.49208 -0.0126,-0.41441 -0.02162,-0.45123 -0.120785,-0.49321 -0.156528,-0.0663 -0.10748,-0.12602 0.157919,-0.19241 0.304645,-0.0762 0.305884,-0.0761 0.305884,0.0306 0,0.0908 4.28e-4,0.0908 0.154541,1.9e-4 0.204556,-0.12035 0.451942,-0.11785 0.588493,0.006 l 0.107224,0.0972 0.162986,-0.0972 c 0.232389,-0.13858 0.507676,-0.12971 0.654647,0.0211 0.104029,0.10674 0.116862,0.16497 0.1315,0.59663 0.01574,0.46417 0.01969,0.47918 0.133145,0.50666 0.07416,0.0179 0.111489,0.0556 0.102064,0.10276 -0.01229,0.0616 -0.07626,0.0731 -0.3709,0.0668 -0.268067,-0.006 -0.359548,-0.024 -0.370232,-0.0741 -0.0078,-0.0365 0.02964,-0.0775 0.08321,-0.091 0.08864,-0.0223 0.0974,-0.0601 0.0974,-0.41886 0,-0.33311 -0.01476,-0.40852 -0.0951,-0.48604 -0.109124,-0.1053 -0.183998,-0.11343 -0.354397,-0.0385 -0.117235,0.0516 -0.121115,0.067 -0.121115,0.48288 0,0.42307 0.002,0.43035 0.126621,0.47609 0.210855,0.0773 0.05468,0.15689 -0.319096,0.16251 -0.284358,0.004 -0.330589,-0.006 -0.330589,-0.0748 0,-0.0439 0.04112,-0.0902 0.09137,-0.10286 0.176025,-0.0444 0.187188,-0.72865 0.01495,-0.91674 -0.08557,-0.0934 -0.195993,-0.10162 -0.365625,-0.0271 -0.117235,0.0516 -0.121116,0.067 -0.121116,0.48289 0,0.42307 0.002,0.43035 0.126622,0.47609 0.207994,0.0763 0.0596,0.14762 -0.318238,0.15295 -0.186694,0.002 -0.348343,-0.004 -0.35922,-0.0143 z m 3.113746,-0.0621 c -0.449181,-0.28953 -0.43071,-0.95734 0.03358,-1.21417 0.236437,-0.13079 0.601213,-0.13869 0.807227,-0.0175 0.288482,0.16974 0.395244,0.64646 0.217112,0.96947 -0.188338,0.34151 -0.727541,0.47514 -1.05792,0.26218 z m 0.689084,-0.14967 c 0.04007,-0.0387 0.08678,-0.14189 0.103791,-0.2294 0.07308,-0.37585 -0.14214,-0.75557 -0.428242,-0.75557 -0.25957,0 -0.390119,0.23663 -0.330159,0.59843 0.05804,0.35024 0.451464,0.58255 0.65461,0.38654 z m 0.694757,0.16741 c 0,-0.0478 0.04247,-0.0971 0.0951,-0.11041 0.08678,-0.0219 0.0951,-0.0626 0.0951,-0.46514 0,-0.42724 -0.0038,-0.44282 -0.12011,-0.49396 -0.173509,-0.0763 -0.123704,-0.13768 0.182899,-0.2255 0.259472,-0.0743 0.296687,-0.0659 0.2757,0.0623 -0.0091,0.0556 0.06028,0.0398 0.179402,-0.0406 0.135654,-0.0917 0.45027,-0.0981 0.558579,-0.0114 0.142757,0.11423 0.207413,0.34786 0.207413,0.74947 0,0.38041 0.0032,0.39136 0.121257,0.41995 0.07796,0.0189 0.115978,0.056 0.106474,0.10411 -0.02161,0.10924 -0.725372,0.13602 -0.767847,0.0292 -0.01945,-0.0489 0.0093,-0.0861 0.08929,-0.11539 0.112141,-0.0411 0.117969,-0.0616 0.117969,-0.41355 0,-0.33551 -0.01136,-0.38123 -0.120993,-0.48702 -0.07137,-0.0689 -0.150974,-0.10564 -0.194093,-0.0897 -0.0402,0.0149 -0.102696,0.0271 -0.138866,0.0271 -0.129705,0 -0.174432,0.18003 -0.139452,0.56131 0.02806,0.30582 0.04881,0.37146 0.123362,0.39028 0.0493,0.0125 0.08963,0.0615 0.08963,0.10903 0,0.0774 -0.03956,0.0864 -0.380409,0.0864 -0.340856,0 -0.38041,-0.009 -0.38041,-0.0864 z m 3.73277,-0.005 c -0.199389,-0.12661 -0.309116,-0.34657 -0.308905,-0.61925 3.32e-4,-0.44115 0.293054,-0.71139 0.770874,-0.7117 0.235279,-1.4e-4 0.293942,0.0186 0.436946,0.13977 0.414713,0.35133 0.307574,1.01175 -0.197145,1.21523 -0.234135,0.0944 -0.531287,0.0842 -0.70177,-0.024 z m 0.689492,-0.18409 c 0.189716,-0.18306 0.09632,-0.79422 -0.140019,-0.91627 -0.28746,-0.14843 -0.525697,0.0183 -0.525697,0.36797 0,0.48998 0.391757,0.81263 0.665716,0.5483 z"
         id="path302"
         sodipodi:nodetypes="ssssssscssssscsssscssscsssccscssscssscccssssscssscssccsssscsssccsssssssssssssscsssssscscssssscccssssssccssssssscssssssscssscsssssccsscssccscssssssscscssssscsssssssscccssssssccscccssssccccssscscsscccssccccsssssssscsssssssssssssssssscsssscsssssscsssccssscsscssscssscssssscsscsssssssscsccccsccsssccccscccccscccssssccsssssscccsssscssssscccsssssscccssssssscssscccccsssssssssscsssssccccssssssccsssssssssscccsssssscccssscscscssscssssscsssccsssssssssscscccssssscssscccccccssscsssssssssssssssssscssssscscssssscsssscssssccscsssscccccccccccsscscccssscsscssssssssccccssssssscccccccccccccccccccccssscccssscccscscscccsssscsssscccsscsccscsssscscsscssssscssssssssccssssscssscccssssscscssssscssssssscssscsscccsssssssssssssssssccsssssssssssssssssscsssssss" /></g><g
       inkscape:groupmode="layer"
       id="layer2"
       inkscape:label="M"
       style="display:inline;fill:#019027;fill-opacity:1"><path
         d="m 20.78934,151.72402 v -10.46893 h 2.185857 c 2.307126,0 2.765663,0.0506 3.034193,0.3347 0.184357,0.19506 0.545953,0.86747 3.110919,5.785 1.05999,2.03221 2.203297,4.22294 2.540682,4.86831 0.337386,0.64536 0.748709,1.48343 0.914054,1.86237 0.165345,0.37895 0.325743,0.67393 0.356442,0.65551 0.0307,-0.0184 0.15164,-0.2676 0.26876,-0.55376 0.200961,-0.491 0.998729,-2.03295 4.853625,-9.38122 0.890874,-1.69821 1.704216,-3.16463 1.807426,-3.25873 0.297184,-0.27094 0.659086,-0.30839 2.999044,-0.31034 l 2.201151,-0.002 v 10.46889 10.46893 H 42.840512 40.61953 v -6.78941 c 0,-3.91691 -0.02955,-6.75847 -0.06986,-6.71628 -0.06864,0.0719 -0.493637,0.85986 -2.032248,3.76804 -0.425585,0.80442 -0.94301,1.77433 -1.14983,2.15537 -0.20682,0.38104 -0.777705,1.45487 -1.268632,2.3863 -1.083404,2.05552 -1.297969,2.41006 -1.602448,2.64783 -0.373452,0.29163 -0.758664,0.38576 -1.59348,0.3894 -0.787958,0.003 -1.201437,-0.0942 -1.496646,-0.3535 -0.07802,-0.0685 -0.18143,-0.095 -0.240865,-0.0617 -0.05728,0.0321 -0.07843,0.0307 -0.047,-0.003 0.03143,-0.0338 -0.0074,-0.15189 -0.08637,-0.26251 -0.165029,-0.23129 -0.832349,-1.4663 -2.271543,-4.20396 -0.556423,-1.05844 -1.12732,-2.13228 -1.268658,-2.3863 -0.141339,-0.25403 -0.713295,-1.32786 -1.271017,-2.3863 -0.55772,-1.05844 -1.01747,-1.93023 -1.021667,-1.9373 -0.0042,-0.007 0.0025,3.08453 0.01491,6.87023 l 0.02254,6.88311 H 23.01302 20.789325 Z"
         style="fill:#019027;fill-opacity:1;stroke-width:0.0781403"
         id="path968" /></g><g
       inkscape:groupmode="layer"
       id="layer3"
       inkscape:label="E"><path
         d="m 46.030763,151.83508 v -10.46893 h 6.805618 6.80562 v 1.88595 1.88594 h -4.3167 -4.31671 v 2.42479 2.42479 h 3.30558 3.30559 v 1.80897 1.80897 h -3.30559 -3.30558 v 2.46327 2.46328 h 4.31671 4.3167 v 1.88595 1.88595 h -6.80562 -6.805618 z"
         style="display:inline;fill:#000000;stroke-width:0.0773769"
         id="path1448" /></g><g
       inkscape:groupmode="layer"
       id="layer4"
       inkscape:label="R"
       style="fill:#01dbff;fill-opacity:1"><path
         d="M 60.815679,162.37924 V 151.9862 141.54785 c 0,-0.0613 1.20662,-0.0751 4.33644,-0.0495 4.03637,0.0329 4.39686,0.0469 5.21422,0.20184 0.91345,0.17319 2.15181,0.56002 2.73424,0.85409 0.54286,0.27409 1.36057,0.89532 1.75184,1.33092 1.51674,1.68852 1.7124,5.00334 0.41874,7.09428 -0.54101,0.87444 -1.57996,1.81275 -2.56428,2.3159 l -0.69417,0.35483 0.4782,0.35577 c 0.49394,0.36747 1.01068,0.95662 1.36801,1.5597 0.20885,0.35247 1.8856,3.06865 3.34179,5.41336 0.44237,0.71229 0.80431,1.32932 0.80431,1.37118 0,0.0491 -0.88939,0.0669 -2.50836,0.0501 -2.63385,-0.0274 -2.6381,-0.0279 -3.18901,-0.39693 -0.26404,-0.17688 -0.49961,-0.55706 -2.43272,-3.92593 -0.84713,-1.47632 -1.62611,-2.78522 -1.73105,-2.90866 -0.32192,-0.37863 -0.59418,-0.4682 -1.55017,-0.50995 l -0.87624,-0.0383 -0.0202,3.87882 -0.0202,3.87882 -2.43058,0.0203 c -1.33682,0.0112 -2.4307,0.003 -2.43086,-0.0192 z m 8.33444,-11.27144 c 0.51274,-0.16088 1.2149,-0.57897 1.48873,-0.88644 0.0782,-0.0878 0.25142,-0.38267 0.38502,-0.65531 0.21422,-0.43721 0.24694,-0.59296 0.27718,-1.31954 0.0396,-0.95018 -0.0622,-1.32921 -0.52005,-1.93788 -0.33336,-0.44313 -0.69281,-0.68821 -1.34512,-0.91713 -0.43536,-0.15278 -0.67804,-0.17606 -2.10596,-0.20197 l -1.61391,-0.0293 v 3.09661 3.09662 l 1.45835,-0.0417 c 1.18567,-0.0339 1.55509,-0.072 1.97576,-0.20401 z"
         style="display:inline;fill:#01dbff;fill-opacity:1;stroke-width:0.0773769"
         id="path1471" /></g><g
       inkscape:groupmode="layer"
       id="layer5"
       inkscape:label="N"><path
         d="m 79.947939,162.08184 c -0.0618,-0.15935 -0.0604,-20.42724 10e-4,-20.65372 l 0.049,-0.17968 1.642,0.0257 c 1.48315,0.0232 1.66806,0.0409 1.91113,0.1822 0.27251,0.15844 0.61258,0.53667 1.59691,1.77606 0.29908,0.37658 0.56512,0.70202 0.59119,0.72319 0.0261,0.0212 0.35927,0.43766 0.74043,0.92554 0.38114,0.48788 0.8218,1.04212 0.97922,1.23164 0.15742,0.18952 0.83954,1.04012 1.51582,1.89021 2.3588,2.96505 4.17255,5.22866 4.22015,5.26687 0.0264,0.0212 0.17506,0.21231 0.33043,0.42476 0.15536,0.21244 0.3467,0.44381 0.42521,0.51415 0.13838,0.12397 0.14203,-0.0719 0.11926,-6.40975 l -0.0235,-6.53763 h 2.18184 2.18183 v 10.46893 10.46893 h -1.46367 c -1.84589,0 -2.06369,-0.0548 -2.66628,-0.67093 -0.23951,-0.24488 -1.02616,-1.19 -1.7481,-2.10026 -0.72195,-0.91026 -1.60388,-2.01873 -1.95985,-2.46328 -0.35597,-0.44454 -0.95084,-1.1893 -1.32193,-1.65501 -0.3711,-0.46572 -0.69458,-0.86407 -0.71885,-0.88524 -0.0243,-0.0212 -0.21777,-0.26224 -0.43,-0.53572 -0.50328,-0.64852 -0.34273,-0.44688 -2.17833,-2.73582 -0.88276,-1.10078 -1.62809,-2.02568 -1.65629,-2.05533 -0.0282,-0.0296 -0.0338,2.84809 -0.0124,6.39498 0.0214,3.54688 0.0276,6.50687 0.0138,6.57774 -0.0228,0.11675 -0.22494,0.12887 -2.15003,0.12887 -1.83274,0 -2.13115,-0.0161 -2.17042,-0.11742 z"
         style="display:inline;fill:#50be3b;fill-opacity:1;fill-rule:nonzero;stroke-width:0.0773769"
         id="path1496" /></g><g
       inkscape:groupmode="layer"
       id="layer6"
       inkscape:label="Line"><rect
         style="fill:#a6a6a6;fill-opacity:1;fill-rule:evenodd;stroke-width:0.26607"
         id="rect3032"
         width="77.617004"
         height="0.88987875"
         x="20.754774"
         y="163.17781"
         ry="0" /></g></g></svg>
